<svg width="50" height="50" viewBox="0 0 50 50" fill="none" xmlns="http://www.w3.org/2000/svg">
<circle cx="25" cy="25" r="24" stroke="white" stroke-opacity="0.5" stroke-width="2"/>
<path d="M14.6875 30.7292C14.6875 31.362 15.2005 31.875 15.8333 31.875H34.1667C34.7995 31.875 35.3125 31.362 35.3125 30.7292C35.3125 30.0963 34.7995 29.5833 34.1667 29.5833H15.8333C15.2005 29.5833 14.6875 30.0963 14.6875 30.7292ZM14.6875 25C14.6875 25.6328 15.2005 26.1458 15.8333 26.1458H34.1667C34.7995 26.1458 35.3125 25.6328 35.3125 25C35.3125 24.3672 34.7995 23.8542 34.1667 23.8542H15.8333C15.2005 23.8542 14.6875 24.3672 14.6875 25ZM15.8333 18.125C15.2005 18.125 14.6875 18.638 14.6875 19.2708C14.6875 19.9037 15.2005 20.4167 15.8333 20.4167H34.1667C34.7995 20.4167 35.3125 19.9037 35.3125 19.2708C35.3125 18.638 34.7995 18.125 34.1667 18.125H15.8333Z" fill="white"/>
</svg>
