<svg width="12" height="12" viewBox="0 0 12 12" fill="none" xmlns="http://www.w3.org/2000/svg">
<path d="M9.55551 8.48795C9.10514 8.48795 8.69922 8.66566 8.39107 8.95181L4.16885 6.4488C4.20144 6.31325 4.22218 6.17169 4.22218 6.02711C4.22218 5.88253 4.20144 5.74096 4.16885 5.60542L8.34663 3.12651C8.66366 3.42771 9.08737 3.61446 9.55551 3.61446C10.5363 3.61446 11.3333 2.80422 11.3333 1.80723C11.3333 0.810241 10.5363 2.87251e-09 9.55551 2.87251e-09C8.57477 2.87251e-09 7.77774 0.810241 7.77774 1.80723C7.77774 1.95181 7.79848 2.09337 7.83107 2.22892L3.65329 4.70783C3.33626 4.40663 2.91255 4.21988 2.4444 4.21988C1.46366 4.21988 0.666626 5.03012 0.666626 6.02711C0.666626 7.0241 1.46366 7.83434 2.4444 7.83434C2.91255 7.83434 3.33626 7.64759 3.65329 7.34639L7.87551 9.8494C7.84588 9.9759 7.82811 10.1084 7.82811 10.244C7.82811 11.2139 8.60144 12 9.55551 12C10.5096 12 11.2829 11.2139 11.2829 10.244C11.2829 9.2741 10.5096 8.48795 9.55551 8.48795Z" fill="white"/>
</svg>
